<?xml version="1.0" encoding="UTF-8" standalone="no"?>
<!-- Created with Inkscape (http://www.inkscape.org/) -->

<svg
   width="338.66666mm"
   height="190.5mm"
   viewBox="0 0 338.66666 190.5"
   version="1.1"
   id="svg5"
   inkscape:version="1.2.2 (b0a8486541, 2022-12-01)"
   sodipodi:docname="Alm-yaa'lam-ba'anna-allaha-yara.svg"
   xmlns:inkscape="http://www.inkscape.org/namespaces/inkscape"
   xmlns:sodipodi="http://sodipodi.sourceforge.net/DTD/sodipodi-0.dtd"
   xmlns="http://www.w3.org/2000/svg"
   xmlns:svg="http://www.w3.org/2000/svg">
  <sodipodi:namedview
     id="namedview7"
     pagecolor="#ffffff"
     bordercolor="#666666"
     borderopacity="1.0"
     inkscape:pageshadow="2"
     inkscape:pageopacity="0.0"
     inkscape:pagecheckerboard="0"
     inkscape:document-units="mm"
     showgrid="false"
     inkscape:zoom="0.25976393"
     inkscape:cx="263.70097"
     inkscape:cy="217.50518"
     inkscape:window-width="1366"
     inkscape:window-height="744"
     inkscape:window-x="0"
     inkscape:window-y="0"
     inkscape:window-maximized="1"
     inkscape:current-layer="layer1"
     inkscape:showpageshadow="2"
     inkscape:deskcolor="#d1d1d1" />
  <defs
     id="defs2" />
  <g
     inkscape:label="Layer 1"
     inkscape:groupmode="layer"
     id="layer1"
     transform="translate(222.99997,-5.3749533)">
    <rect
       style="fill:#000000;fill-opacity:1;stroke:#ffffff;stroke-width:1.09753"
       id="rect4005"
       width="456.93585"
       height="286.17444"
       x="-284.51431"
       y="-52.458626" />
    <path
       style="fill:#ffffff;stroke-width:0.206171"
       d="m -51.150522,145.3377 c 0.04387,-0.13163 0.571445,-0.51708 1.17238,-0.8566 0.959549,-0.5421 1.083532,-0.57015 1.018055,-0.23016 -0.041,0.21293 -0.444872,0.59687 -0.897484,0.85321 -0.903642,0.51179 -1.416583,0.60443 -1.292951,0.23355 z m 4.60948,-0.21151 c -0.108483,-0.34922 -0.368434,-2.18346 -0.402264,-2.83843 -0.01794,-0.34743 0.135364,-0.58871 0.489293,-0.77011 0.378753,-0.1941 0.419754,-0.26495 0.154627,-0.26718 -0.518876,-0.005 -0.451774,-0.20135 0.349259,-1.02521 l 0.710056,-0.73028 -0.333235,-1.19119 c -0.223879,-0.80029 -0.265049,-1.25938 -0.125453,-1.39898 0.139596,-0.1396 0.353595,0.29405 0.652111,1.32143 0.394109,1.35635 0.523797,1.5669 1.14746,1.86285 0.386721,0.18351 1.067937,0.33366 1.51381,0.33366 1.107246,0 3.226821,-0.44196 2.947497,-0.61459 -0.347304,-0.21465 -0.03473,-0.77678 0.507616,-0.9129 0.665579,-0.16705 1.132463,0.0497 1.352263,0.62784 0.101906,0.26802 0.28035,0.48731 0.396548,0.48731 0.273951,0 0.268544,-0.33243 -0.01401,-0.86037 -0.164441,-0.30726 -0.162122,-0.48407 0.0085,-0.65479 0.292376,-0.29237 0.621231,0.15807 0.625869,0.85728 0.002,0.29416 0.09008,0.42231 0.230713,0.3354 0.125155,-0.0774 0.07845,0.087 -0.103806,0.3651 -0.18225,0.27813 -0.277968,0.55911 -0.212704,0.62437 0.06526,0.0652 -0.189547,0.0776 -0.566245,0.0273 -1.144203,-0.15266 -1.440431,-0.13239 -3.35214,0.22934 -2.108616,0.39897 -3.440704,0.28746 -4.068778,-0.34061 -0.559115,-0.55912 -0.974598,-0.19583 -0.519361,0.45411 0.39421,0.56283 0.240244,1.02355 -0.343443,1.02772 -0.825371,0.007 -1.039068,0.29019 -0.778967,1.03633 0.289893,0.83158 0.304031,1.98548 0.02643,2.15705 -0.114195,0.0707 -0.245479,0.007 -0.291744,-0.14246 z m -14.425838,-0.67827 c -0.750535,-1.14545 -0.322475,-2.63715 0.479474,-1.67086 0.191893,0.23122 0.164745,0.33645 -0.129382,0.50157 -0.35585,0.19974 -0.356355,0.23589 -0.01146,0.82158 0.406522,0.69029 0.441431,0.85829 0.178342,0.85829 -0.10036,0 -0.333003,-0.22976 -0.517002,-0.51058 z m 2.768654,0.21035 c -0.332582,-0.40075 -0.08213,-0.79288 0.351423,-0.55025 0.200573,0.11224 0.565602,0.1038 0.924545,-0.0213 0.861169,-0.3002 0.936605,-0.0433 0.13144,0.44754 -0.82383,0.50226 -1.075107,0.5244 -1.407408,0.12399 z m 15.157521,-0.71202 c -0.06376,-0.10317 -0.05931,-0.33511 0.0099,-0.51544 0.0692,-0.18031 0.02311,-0.32784 -0.102419,-0.32784 -0.33553,0 -0.277918,-0.73296 0.08103,-1.03086 0.258373,-0.21444 0.309256,-0.18466 0.309256,0.18093 0,0.24068 0.09455,0.43758 0.210097,0.43758 0.121157,0 0.155333,0.2182 0.08073,0.51542 -0.150985,0.60157 -0.06771,0.62387 0.750259,0.20088 0.497824,-0.25744 0.608271,-0.26345 0.608271,-0.033 0,0.52581 -1.672111,1.01738 -1.947119,0.57241 z m -15.155589,-0.52267 c -0.143946,-0.17346 -0.201726,-0.47174 -0.128385,-0.66285 0.117453,-0.30609 0.172178,-0.29204 0.459268,0.11783 0.388218,0.55426 0.08768,1.04934 -0.330883,0.54502 z m 8.495098,0.16135 c -0.141743,-0.0572 -0.257713,-0.28182 -0.257713,-0.49914 0,-0.21735 0.11597,-0.39375 0.257713,-0.39201 0.473086,0.006 0.788649,0.33503 0.654978,0.68337 -0.136895,0.35675 -0.220259,0.38319 -0.654978,0.20778 z m -15.683281,-0.50684 c 0.0526,-0.34933 0.237797,-0.45249 0.920928,-0.51313 0.891771,-0.0791 1.230649,0.20497 0.894039,0.74961 -0.141438,0.22886 -0.228159,0.23018 -0.496352,0.007 -0.217537,-0.18054 -0.324969,-0.1932 -0.324969,-0.0383 0,0.12728 -0.238396,0.23142 -0.529764,0.23142 -0.423073,0 -0.516495,-0.088 -0.463882,-0.43723 z m -3.746699,-0.0763 c -0.140307,-0.16905 -0.214451,-0.58428 -0.164775,-0.92277 0.0618,-0.42114 0.02049,-0.5585 -0.130949,-0.43514 -0.213453,0.17388 -1.572221,0.30695 -2.550641,0.24977 -0.683842,-0.04 -1.079026,-1.06603 -0.813481,-2.11218 0.254597,-1.00305 0.562032,-0.86073 0.420471,0.19466 -0.09643,0.71897 -0.05283,0.81199 0.483509,1.03079 0.454226,0.18533 0.822434,0.18138 1.604482,-0.0172 1.222863,-0.31048 1.390186,-0.61718 0.482473,-0.88436 -1.173265,-0.34535 -0.912622,-1.75548 0.455217,-2.46282 0.558993,-0.28906 0.623856,-0.28521 0.794873,0.0472 0.257237,0.50008 0.07722,0.96231 -0.2644,0.67882 -0.187957,-0.15599 -0.411579,-0.0967 -0.806592,0.21406 -0.657871,0.51748 -0.573527,0.71886 0.375649,0.89694 0.394156,0.0739 0.770436,0.22149 0.836188,0.32787 0.103155,0.16691 -0.0491,0.96753 -0.440505,2.31618 -0.207454,0.71487 0.656,0.36506 1.683277,-0.68192 2.037459,-2.07654 3.809084,-2.83242 4.20031,-1.79212 0.199895,0.53154 -0.05797,0.72519 -0.489112,0.36733 -0.428598,-0.3557 -1.362088,0.20365 -3.125718,1.87293 -1.509618,1.42886 -2.080613,1.6778 -2.550276,1.11189 z m 15.296266,0.06 c -0.30809,-0.30809 -0.326269,-1.74123 -0.02446,-1.92776 0.137322,-0.0849 0.196716,0.0171 0.154637,0.26542 -0.09434,0.5569 0.396066,1.08506 1.007501,1.08506 0.745946,0 1.743059,-0.64315 1.590915,-1.02617 -0.06856,-0.17267 -0.169724,-0.63865 -0.22476,-1.03554 -0.09469,-0.68285 -0.08267,-0.7001 0.223708,-0.32139 0.325911,0.40286 0.433491,1.65111 0.195703,2.27078 -0.294642,0.76783 -2.358211,1.25462 -2.923251,0.6896 z m 13.587505,-0.1473 c -0.38498,-0.24377 -0.123612,-0.88103 0.337892,-0.82383 0.199211,0.0246 0.531756,-0.0285 0.738989,-0.11808 0.245899,-0.10637 0.487132,-0.0526 0.694449,0.15469 0.392201,0.39221 0.154223,0.84162 -0.3727,0.70381 -0.213877,-0.0559 -0.440824,-0.0176 -0.504325,0.0851 -0.145401,0.23525 -0.5212,0.23454 -0.894305,-9.4e-4 z m 3.385473,-1.05685 c 0.07292,-0.11798 0.500323,-0.44666 0.949782,-0.73039 0.44946,-0.28373 0.876405,-0.67017 0.94877,-0.85875 0.241503,-0.62934 0.760143,-1.08273 1.238587,-1.08273 0.523424,0 0.522188,-0.0306 -0.08997,-2.22732 -0.306952,-1.10151 -0.242301,-1.82513 0.141848,-1.58772 0.114193,0.0706 0.207625,0.38951 0.207625,0.70874 0,0.31923 0.139166,0.97487 0.309256,1.45696 0.398908,1.13063 0.390683,1.83077 -0.03173,2.70006 -0.187541,0.38595 -0.360227,0.72753 -0.383746,0.75905 -0.02352,0.0315 -0.279679,-0.0327 -0.569241,-0.14285 -0.403903,-0.15356 -0.552954,-0.13119 -0.640183,0.0961 -0.06253,0.16297 -0.418341,0.48204 -0.79068,0.70906 -0.717262,0.43731 -1.513301,0.56055 -1.290322,0.19976 z m -12.762935,-1.07404 c -0.172553,-0.59532 -0.361563,-1.73183 -0.420025,-2.52558 -0.119613,-1.62409 -0.06802,-1.54072 0.56522,0.91381 0.254202,0.98529 0.57373,1.77884 0.737506,1.8316 0.203977,0.0657 0.256893,-0.0297 0.179898,-0.32402 -0.05999,-0.22942 -0.03405,-0.53853 0.05765,-0.68692 0.121805,-0.19707 0.235028,-0.11989 0.420164,0.28644 0.34984,0.76781 -0.02258,1.58706 -0.721474,1.58706 -0.432183,0 -0.55057,-0.15647 -0.818944,-1.08239 z m -10.78838,0.4662 c -0.05899,-0.2255 -0.191721,-0.3578 -0.294984,-0.29397 -0.324399,0.20048 -1.414724,-0.13983 -1.414724,-0.44156 0,-0.15847 0.255134,-0.45048 0.566965,-0.64893 0.311839,-0.19842 0.626179,-0.44439 0.698545,-0.54659 0.209885,-0.29636 0.589727,0.0553 0.593179,0.54925 0.0047,0.66875 0.312937,1.04819 0.723527,0.89064 0.291625,-0.11191 0.338013,-0.32342 0.256654,-1.17015 -0.127186,-1.32363 0.126788,-1.48923 0.459805,-0.2998 0.304756,1.08849 0.998235,1.86516 0.739946,0.82871 -0.183726,-0.73723 -0.180079,-0.69975 -0.130738,-1.34395 0.03008,-0.39227 0.133683,-0.25009 0.433685,0.59486 0.577625,1.62691 0.248105,2.60347 -0.67622,2.00405 -0.408937,-0.26518 -0.521489,-0.2663 -0.869912,-0.008 -0.556585,0.4117 -0.959313,0.36941 -1.085728,-0.11399 z m 4.42779,-0.62081 c -0.205887,-0.57149 -0.5709,-2.50067 -0.5709,-3.01738 0,-0.93587 0.339033,-0.31934 0.607859,1.10538 0.251339,1.33204 0.226022,2.64189 -0.03694,1.912 z m 2.797064,-0.5293 c -0.186976,-0.48725 0.251721,-0.83407 0.643617,-0.50882 0.174898,0.14515 0.317995,0.39171 0.317995,0.54792 0,0.39186 -0.808853,0.35899 -0.961612,-0.0392 z m 21.510666,-1.89793 c -0.384553,-1.78953 -0.432121,-2.52087 -0.163968,-2.52087 0.09922,0 0.23919,0.29395 0.311041,0.65321 0.194889,0.97443 0.40696,3.47019 0.294873,3.47019 -0.05366,0 -0.252543,-0.72113 -0.441946,-1.60253 z m -16.63182,0.0563 c 0,-0.2835 0.09277,-0.51544 0.206171,-0.51544 0.113394,0 0.20617,0.0945 0.20617,0.2101 0,0.12346 0.221678,0.15447 0.537623,0.0752 0.497806,-0.12493 0.520172,-0.10231 0.302002,0.30533 -0.142767,0.26676 -0.435885,0.44027 -0.743793,0.44027 -0.404603,0 -0.508173,-0.10509 -0.508173,-0.51543 z m 7.00979,0.29708 c 0,-0.12008 -0.09277,-0.16101 -0.20617,-0.0909 -0.29124,0.18001 -0.257185,-0.38195 0.04123,-0.68036 0.39222,-0.39222 1.195788,-0.30909 1.195788,0.1237 0,0.20411 -0.111331,0.48244 -0.247404,0.61851 -0.305926,0.30593 -0.783447,0.32364 -0.783447,0.0291 z m -24.12192,-0.48921 c 0,-0.33314 0.720122,-0.88473 2.001941,-1.5334 1.012902,-0.51259 1.090614,-0.52538 1.090614,-0.17961 0,0.28051 -0.490812,0.63558 -1.687797,1.22107 -0.418024,0.20447 -0.817798,0.46522 -0.888395,0.57944 -0.189898,0.30727 -0.516363,0.25194 -0.516363,-0.0874 z m 11.893447,0.16205 c -0.219055,-0.21905 -0.167408,-1.10387 0.06444,-1.10387 0.113392,0 0.206167,0.095 0.206167,0.21093 0,0.11601 0.223349,0.0647 0.496336,-0.11429 0.294797,-0.19316 0.546215,-0.2445 0.619181,-0.12643 0.181989,0.29444 -0.06413,0.79636 -0.45972,0.93738 -0.190598,0.0679 -0.445117,0.17179 -0.565594,0.23078 -0.120484,0.059 -0.282843,0.0434 -0.360796,-0.0345 z m 10.073672,-0.0568 c -0.189519,-0.30666 1.366412,-1.53634 3.187106,-2.51883 2.164308,-1.16792 2.67876,-1.34617 2.67876,-0.92812 0,0.1818 -0.781534,0.70197 -1.907075,1.26928 -1.048891,0.52867 -2.344038,1.27485 -2.878104,1.65816 -0.534065,0.38332 -1.020376,0.6171 -1.080687,0.51951 z m -17.085492,-0.76985 c -0.243462,-0.24346 -0.151552,-0.93398 0.112598,-0.84594 0.138764,0.0463 0.486681,-0.0383 0.773133,-0.18782 0.451795,-0.23589 0.530294,-0.22787 0.592188,0.0605 0.117546,0.54772 -1.101008,1.35015 -1.477919,0.97323 z m -6.808973,-0.79975 c 0.232467,-0.6058 4.595683,-3.13162 4.894133,-2.83317 0.281543,0.28153 0.04785,0.47812 -1.678226,1.41183 -0.992197,0.53672 -2.050254,1.14728 -2.351238,1.35681 -0.665889,0.46354 -1.028159,0.49058 -0.864669,0.0646 z m 12.271013,-0.0231 c 0.07799,-0.40497 1.953989,-1.65724 2.165627,-1.44561 0.206082,0.20608 -0.568118,0.96028 -1.445302,1.40797 -0.738706,0.37702 -0.786153,0.37949 -0.720325,0.0377 z m 18.826671,-0.0814 c -0.173646,-0.54712 0.03508,-0.81601 0.633433,-0.81601 0.559705,0 0.59268,0.0662 0.302815,0.60782 -0.30215,0.56457 -0.788791,0.67278 -0.936248,0.20819 z m -35.113762,-0.50676 c -0.137603,-0.34017 -0.350207,-0.81506 -0.472445,-1.05528 -0.122244,-0.24024 -0.189912,-0.59977 -0.150374,-0.79895 0.119448,-0.60183 1.039799,1.2453 0.949955,1.90654 l -0.07691,0.5662 z m 27.385131,0.20361 c 0,-0.16868 0.16789,-0.47457 0.373091,-0.67978 0.452931,-0.45293 6.230349,-3.40071 6.377237,-3.25381 0.237537,0.23754 -0.189953,0.7749 -0.780129,0.98062 -0.835905,0.29141 -3.530445,1.70918 -4.887806,2.5718 -0.787283,0.50032 -1.082393,0.60424 -1.082393,0.38117 z m -6.970103,-0.7688 c 0.0462,-0.63787 0.161011,-0.89296 0.424194,-0.94288 0.254223,-0.0482 0.360799,0.0643 0.360799,0.38108 0,0.31487 0.09265,0.41397 0.309256,0.33085 0.557392,-0.2139 0.325392,0.38846 -0.289519,0.75169 -0.833967,0.49264 -0.876218,0.4653 -0.80473,-0.52074 z m 4.289888,0.29452 c 0,-0.3514 2.487196,-2.30645 2.934244,-2.30645 0.08707,0 0.158311,0.12555 0.158311,0.279 0,0.15346 -0.648325,0.71012 -1.44072,1.23703 -1.497046,0.99546 -1.651835,1.06953 -1.651835,0.79042 z m -14.225748,-0.30328 c 0,-0.32113 2.270711,-1.81958 2.522005,-1.66427 0.25984,0.16059 -0.153718,0.58453 -1.267333,1.29915 -1.093427,0.70164 -1.254672,0.74856 -1.254672,0.36512 z m -7.600152,-0.62914 c -0.186929,-0.22524 -0.185954,-0.42998 0.0039,-0.88507 0.240945,-0.57657 0.249578,-0.57946 0.330407,-0.11 0.06958,0.40409 0.169014,0.46044 0.615012,0.3485 0.515786,-0.12946 0.522386,-0.119 0.21636,0.34264 -0.383659,0.57877 -0.839328,0.69754 -1.166003,0.30393 z m 10.898874,0.0166 c 0,-0.46085 0.542481,-0.82401 1.009487,-0.67578 0.298655,0.0947 0.504774,-0.0132 0.755203,-0.39531 0.441136,-0.67325 1.178409,-0.72008 1.084496,-0.0689 -0.09632,0.66776 -1.334854,1.4513 -1.854503,1.1732 -0.288829,-0.15458 -0.486161,-0.14602 -0.698601,0.0303 -0.234944,0.195 -0.296082,0.18188 -0.296082,-0.0635 z m 25.108586,-0.43003 c -0.124651,-0.65207 0.165687,-1.37291 0.552975,-1.37291 0.378909,0 0.422819,0.53331 0.05819,0.7067 -0.141743,0.0674 -0.04897,0.0839 0.206171,0.0365 0.608058,-0.11284 0.611494,0.36706 0.0057,0.7914 -0.610452,0.42759 -0.714251,0.40719 -0.822997,-0.16168 z m -19.335813,0.0758 c 0,-0.21713 2.09194,-1.69332 2.21924,-1.56603 0.155602,0.15561 -0.43352,0.87882 -1.072593,1.31672 -0.700291,0.47985 -1.146647,0.5769 -1.146647,0.24931 z m -8.262589,-0.26318 c -0.0087,-0.0284 -0.04808,-0.22205 -0.08751,-0.43043 -0.03943,-0.20839 -0.217904,-0.54041 -0.396565,-0.73783 -0.178667,-0.19742 -0.321913,-0.5372 -0.318329,-0.75506 0.0054,-0.34314 0.07457,-0.31876 0.515427,0.18236 0.437513,0.49731 0.730743,1.79249 0.405822,1.79249 -0.05672,0 -0.110184,-0.0232 -0.118856,-0.0515 z m 12.716901,-0.18967 c 0.100242,-0.16218 0.03668,-0.19808 -0.194004,-0.10956 -0.244275,0.0938 -0.343076,0.0211 -0.343076,-0.25216 0,-0.40266 0.382413,-0.6341 1.047714,-0.6341 0.448787,0 0.538451,0.59924 0.148074,0.98961 -0.320395,0.3204 -0.856007,0.32544 -0.658708,0.007 z m -4.918202,-0.694 c -0.436904,-0.58424 -0.461706,-0.92033 -0.06795,-0.92033 0.161082,0 0.355468,0.28495 0.431964,0.63326 0.1786,0.81315 0.08473,0.88717 -0.364039,0.28707 z m 16.54517,0.14063 c 0,-0.36773 1.736773,-1.88564 2.157535,-1.88564 0.06069,0 0.110338,0.18554 0.110338,0.41235 0,0.22678 -0.08615,0.41233 -0.191444,0.41233 -0.105299,0 -0.314043,0.11717 -0.463883,0.26039 -0.328288,0.31376 -1.347882,0.97663 -1.502209,0.97663 -0.06068,0 -0.110337,-0.0792 -0.110337,-0.17606 z m 2.267873,-0.19584 c 0,-0.22917 1.241792,-1.38373 1.791477,-1.66562 0.735967,-0.37741 0.745054,0.0954 0.01307,0.67971 -0.368832,0.29442 -0.817553,0.67398 -0.997156,0.84348 -0.35158,0.33178 -0.807391,0.4122 -0.807391,0.14243 z m -29.348875,-2.98338 c -0.07052,-0.59256 -0.365153,-1.81959 -0.654659,-2.72674 -0.559757,-1.75396 -0.538064,-2.31698 0.121622,-3.15563 0.219757,-0.27938 0.399563,-0.66662 0.399563,-0.86054 0,-0.52692 0.727696,-1.10977 1.114972,-0.89303 0.471611,0.26392 1.359072,1.53263 1.359072,1.94293 0,0.85451 -0.217467,1.00766 -1.430893,1.00766 -0.649329,0 -1.226487,0.0458 -1.282575,0.10199 -0.05611,0.0561 0.111609,0.72871 0.372656,1.49473 0.477917,1.40239 0.662086,3.83629 0.306899,4.0558 -0.09811,0.0606 -0.236098,-0.37458 -0.306657,-0.96715 z m 0.732442,-6.16978 c -0.19243,-0.19243 -0.302387,-0.19243 -0.494809,0 -0.192431,0.19243 -0.137447,0.2474 0.247405,0.2474 0.384852,0 0.439826,-0.055 0.247404,-0.2474 z m 7.077455,6.85425 c -0.06686,-0.10821 -0.582627,-0.44767 -1.146109,-0.75435 -1.107873,-0.60299 -1.252755,-0.99498 -0.715244,-1.93526 0.452417,-0.79143 0.3922,-0.91741 -0.82468,-1.72536 -0.623661,-0.4141 -1.133937,-0.8478 -1.133937,-0.96382 0,-0.11601 0.234983,-0.67462 0.522176,-1.24138 0.352295,-0.69522 0.603822,-0.97804 0.77314,-0.86934 0.138031,0.0887 0.738044,0.47059 1.333357,0.84883 0.595314,0.37824 1.082392,0.82261 1.082392,0.9875 0,0.16488 -0.184778,0.66198 -0.410621,1.10466 l -0.410628,0.8049 1.235306,0.76248 c 0.679416,0.41936 1.235308,0.87666 1.235308,1.01622 0,0.13955 -0.189898,0.68303 -0.42199,1.20771 -0.397538,0.89871 -0.844151,1.20109 -1.11847,0.75721 z m -11.958396,-1.03002 c -0.444665,-0.85987 -0.400125,-1.25897 0.336282,-3.01332 0.451664,-1.076 0.716624,-1.48469 0.865815,-1.3355 0.149191,0.14919 0.07621,0.50061 -0.238498,1.14836 -0.456533,0.93969 -0.559422,1.64337 -0.328327,2.2456 0.189601,0.49409 0.685267,0.39049 0.90571,-0.18931 0.216227,-0.56873 0.618511,-0.69748 0.618511,-0.19795 0,0.1746 -0.187443,0.68487 -0.416536,1.13393 -0.530138,1.03915 -1.267699,1.12725 -1.742957,0.20819 z m 19.613275,-0.11527 c -0.549152,-0.15089 -1.488192,-0.59952 -2.086755,-0.99694 -1.085119,-0.72048 -2.584475,-2.33614 -2.584475,-2.78495 0,-0.13007 -0.09277,-0.23648 -0.206167,-0.23648 -0.113394,0 -0.188931,-0.0695 -0.167869,-0.15463 0.02103,-0.085 -0.103539,-0.47935 -0.276905,-0.87622 -0.173363,-0.39687 -0.384004,-1.0927 -0.468082,-1.54628 -0.195772,-1.05601 -0.555651,-1.44346 -2.076615,-2.23569 -1.099808,-0.57287 -1.431399,-0.64469 -2.98947,-0.64752 -2.399246,-0.005 -3.594866,0.55174 -9.483831,4.41087 -4.295227,2.81473 -5.984637,3.47549 -7.324804,2.86486 -1.715623,-0.78168 -1.765899,-4.46858 -0.102067,-7.48508 l 0.568594,-1.03084 h -2.189002 c -2.101971,0 -2.223507,-0.0246 -3.056655,-0.61851 -1.243988,-0.8868 -1.998234,-2.35697 -2.009672,-3.91724 -0.0047,-0.68035 0.07115,-1.65452 0.169116,-2.16478 0.098,-0.51029 0.10818,-0.86064 0.02259,-0.77858 -0.329208,0.31572 -1.371392,-0.59538 -1.887357,-1.64996 -0.686568,-1.4033 -0.601407,-2.54494 0.438065,-5.87234 l 0.757563,-2.42502 -0.452831,-0.63594 c -0.400718,-0.56275 -0.439483,-0.81246 -0.336852,-2.169508 0.195617,-2.586548 1.189568,-3.821723 3.65158,-4.537793 0.623662,-0.181389 1.24991,-0.422738 1.391651,-0.536327 0.141741,-0.113587 0.257713,-0.140259 0.257713,-0.0593 0,0.208957 2.668905,-1.283814 3.249273,-1.817389 0.265715,-0.244287 0.911959,-1.047211 1.436098,-1.784264 1.396328,-1.963542 1.983559,-2.337788 3.035086,-1.934282 0.610999,0.234462 1.182819,1.877663 1.168949,3.359159 -0.01325,1.413026 -0.406943,2.94133 -0.753792,2.926034 -0.108936,-0.0047 -0.26115,-0.56028 -0.338262,-1.234397 -0.149955,-1.310939 -0.625852,-2.448889 -1.100284,-2.630948 -0.449068,-0.172326 -1.426421,0.636503 -2.227557,1.84347 -1.418099,2.136452 -2.988598,3.263517 -5.78366,4.150618 -2.983136,0.946792 -3.470191,1.537688 -2.036118,2.470226 0.84811,0.551505 2.449747,0.833788 5.979058,1.053801 1.881301,0.11726 2.128308,0.0928 2.249337,-0.222584 0.208007,-0.542046 -0.556968,-2.536203 -1.326017,-3.456687 -0.468728,-0.561028 -0.667173,-0.99204 -0.624776,-1.356961 0.09653,-0.830873 0.591792,-0.640056 1.421612,0.547727 0.604112,0.864715 0.811144,1.420359 1.028954,2.761593 l 0.272681,1.679082 2.689766,-0.134943 c 1.479369,-0.07418 4.03502,-0.186313 5.679227,-0.249104 3.966775,-0.151497 3.91724,-0.1386 3.91724,-1.019664 0,-0.598774 -0.07403,-0.717675 -0.446996,-0.717675 -1.402941,0 -3.137071,-0.504823 -4.286827,-1.247946 -2.520719,-1.629223 -3.457996,-4.398367 -2.902243,-8.574551 0.253513,-1.905053 1.376891,-5.243999 1.811755,-5.384938 0.400273,-0.129733 0.317067,1.061198 -0.1973,2.824072 -0.613797,2.103646 -0.659546,5.546167 -0.08765,6.595831 0.855723,1.570585 2.66652,2.681005 4.820692,2.956167 l 0.876223,0.11192 -0.0016,-1.372031 c -7.78e-4,-0.754618 -0.09459,-2.16063 -0.208396,-3.124479 -0.500069,-4.23522 -0.820806,-7.539747 -0.820806,-8.456655 0,-0.954528 0.729372,-3.295051 1.026826,-3.295051 0.243531,0 0.593334,1.449322 0.821039,3.401806 0.11902,1.020544 0.406351,3.462445 0.638514,5.426437 0.23217,1.964002 0.477314,4.353 0.544773,5.308885 0.06748,0.955893 0.184809,1.737978 0.260776,1.737978 0.439966,0 2.270985,-0.663838 2.190452,-0.794148 -0.05306,-0.08583 -0.196763,-2.563187 -0.319382,-5.505258 -0.122619,-2.942069 -0.280109,-6.100305 -0.349982,-7.018311 l -0.127045,-1.669094 -0.968251,-0.248152 c -1.565435,-0.401216 -2.401934,-1.244581 -2.917275,-2.941229 -0.439321,-1.446377 -0.442826,-1.671932 -0.06849,-4.399449 l 0.113199,-0.824679 -0.395924,0.721595 c -0.217756,0.396875 -0.551724,1.602969 -0.742159,2.68021 -0.696091,3.937719 -1.304207,5.154255 -2.576473,5.154255 -0.870404,0 -2.033522,-1.085128 -2.651504,-2.4737 -0.842624,-1.893349 -0.911796,-6.921571 -0.09305,-6.763895 0.280638,0.05408 0.336882,0.432844 0.361436,2.434467 0.04014,3.272025 0.681775,4.741428 2.070403,4.741428 0.587023,0 0.723434,-0.10995 1.08713,-0.876225 0.228733,-0.481919 0.654729,-1.955297 0.946643,-3.27416 0.708932,-3.202892 1.783789,-5.539621 2.548148,-5.539621 0.528137,0 0.705184,1.421713 0.44765,3.594758 -0.292241,2.465853 -0.176908,3.369772 0.538415,4.219884 0.469677,0.558183 1.841482,1.221593 2.064613,0.998461 0.08522,-0.08522 7.8e-4,-2.393805 -0.518215,-14.173525 -0.10132,-2.299528 -0.282993,-4.249823 -0.42443,-4.556511 -0.213228,-0.462322 -0.173175,-0.682445 0.290676,-1.597818 0.295887,-0.583898 0.618198,-1.061633 0.716257,-1.061633 0.154239,0 2.302091,6.229765 2.292389,6.64899 -0.007,0.295334 -0.681395,0.15258 -0.974236,-0.206169 -0.263603,-0.322919 -0.283256,-0.274217 -0.187232,0.463882 0.05899,0.453579 0.223365,3.677566 0.365246,7.164416 0.141882,3.486858 0.317497,6.339738 0.39026,6.339738 0.264712,0 0.768271,-0.739306 1.003956,-1.473953 0.182424,-0.568617 0.184918,-1.298697 0.01025,-2.989471 -0.127131,-1.230405 -0.238381,-2.609683 -0.247225,-3.065047 -0.02003,-1.030441 0.419784,-2.415507 0.73375,-2.31085 0.405291,0.135094 0.967183,2.417899 1.273092,5.172208 0.330657,2.977088 0.769338,4.162206 1.844109,4.981975 0.839479,0.640299 2.148386,0.697275 2.674075,0.116393 0.339101,-0.374699 0.321077,-0.497933 -0.378636,-2.589002 -0.404077,-1.207568 -0.874154,-2.796947 -1.044615,-3.531968 -0.170461,-0.735021 -0.447272,-1.60198 -0.615134,-1.92659 -0.270025,-0.522175 -0.26923,-0.711333 0.0069,-1.641207 0.171663,-0.578045 0.378104,-1.047646 0.458756,-1.043548 0.22775,0.01161 2.164879,3.131103 2.26783,3.65207 0.101512,0.513698 -0.138166,0.601307 -0.564022,0.206169 -0.228416,-0.211942 -0.249686,-0.184475 -0.119761,0.154629 0.664652,1.734698 1.345892,4.210876 1.345892,4.89206 0,1.013711 -0.536582,3.14114 -0.952286,3.775578 -0.169886,0.25928 -0.624012,0.620958 -1.009174,0.803724 -0.586127,0.278138 -0.854921,0.293372 -1.648806,0.09347 -1.15337,-0.290419 -1.950082,-1.048918 -2.689756,-2.560757 l -0.556243,-1.13693 -0.488098,1.053514 c -0.26846,0.579432 -0.664369,1.301059 -0.87981,1.603617 -0.36873,0.517835 -0.379849,0.761646 -0.189515,4.156642 0.27008,4.817458 0.129274,9.074869 -0.342961,10.369787 -0.198671,0.544765 -0.322677,1.029023 -0.275566,1.076134 0.106024,0.106025 4.878307,-2.284854 6.145832,-3.07901 0.983135,-0.615979 1.637198,-1.297272 1.644776,-1.713254 0.0024,-0.138382 -0.228574,-0.761343 -0.513549,-1.384366 -0.550718,-1.203989 -1.712333,-4.272598 -1.87816,-4.961481 -0.113162,-0.4701 0.37464,-2.01275 0.660576,-2.089035 0.218623,-0.05828 1.907368,1.966774 2.553921,3.0626 0.478194,0.810489 0.299828,1.156551 -0.402399,0.780738 -0.39062,-0.209059 -0.382791,-0.146846 0.122011,0.969771 1.002868,2.218324 1.065966,3.132474 0.338509,4.904224 -0.540649,1.316775 -1.035627,1.911427 -2.313192,2.779009 -1.266892,0.860327 -1.691461,1.579733 -1.505716,2.551366 0.14739,0.771036 0.424312,0.868128 0.706928,0.247848 0.240593,-0.528043 0.478299,-0.662412 0.657858,-0.371877 0.05275,0.08533 -0.02841,0.516752 -0.180341,0.958697 -0.692189,2.013443 -2.000101,1.218219 -1.750452,-1.064298 0.06521,-0.596397 0.06958,-1.059444 0.0096,-1.028992 -0.05992,0.03047 -0.897599,0.46276 -1.861438,0.960669 -0.963849,0.49791 -2.448275,1.160089 -3.298729,1.471499 l -1.546275,0.566194 v 0.897605 c 0,0.829456 0.03912,0.89491 0.51542,0.862137 0.28349,-0.01949 3.113173,-0.182612 6.2882,-0.362457 3.17502,-0.179846 7.813851,-0.467622 10.308511,-0.639495 2.494661,-0.171874 5.022825,-0.310297 5.61814,-0.307593 1.274944,0.0054 1.235936,0.155503 0.771139,-2.95996 -1.6367,-10.970564 -2.136932,-14.124716 -2.358121,-14.868861 -0.228984,-0.770367 0.01035,-3.238659 0.324144,-3.342335 0.127544,-0.04215 0.379634,0.275145 0.560204,0.705083 0.490049,1.166829 2.117587,4.100615 3.147613,5.673858 0.499537,0.762987 1.238363,1.969081 1.641836,2.68021 0.403473,0.711137 1.019282,1.756853 1.368466,2.323825 2.904418,4.715885 4.64194,8.85773 5.654488,13.478948 0.455779,2.08016 0.511717,2.73602 0.424169,4.97329 -0.09984,2.55143 -0.584413,5.09072 -1.318001,6.90671 -0.183227,0.45357 -0.439224,1.38135 -0.568877,2.0617 -0.159009,0.83439 -0.332984,1.23703 -0.53451,1.23703 -0.164324,0 -0.643589,0.52472 -1.065036,1.16604 -0.992094,1.50967 -2.152142,2.44378 -4.18714,3.37156 -4.115016,1.8761 -4.534432,2.12229 -5.204121,3.05482 -0.959992,1.33676 -2.372017,2.66402 -4.118909,3.87164 -2.453829,1.69634 -4.587613,2.16541 -6.926709,1.5227 z m 5.525966,-3.16974 c 1.70634,-0.93879 2.287512,-1.36746 3.793954,-2.79836 2.021464,-1.92011 2.502476,-2.72565 2.502476,-4.19087 0,-1.01819 -0.08604,-1.31416 -0.517333,-1.77953 l -0.517336,-0.55822 -0.565058,0.40244 c -0.310784,0.22134 -1.863935,1.74282 -3.451446,3.3811 -4.112692,4.24418 -5.035979,4.80917 -6.462554,3.95469 -0.780661,-0.4676 -1.646389,-1.66496 -1.912623,-2.6453 -0.334543,-1.23185 -0.09096,-3.43649 0.529411,-4.79156 0.289695,-0.63278 0.526721,-1.18568 0.526721,-1.22868 0,-0.043 -0.774511,-0.0782 -1.721136,-0.0782 h -1.721135 l -0.331747,0.77314 c -0.475578,1.10832 -0.768084,2.34851 -0.613071,2.59933 0.07325,0.11854 0.141288,0.63752 0.151177,1.15329 0.0385,2.00859 2.12251,4.91309 4.297386,5.98928 1.177482,0.58265 1.417268,0.62718 3.03108,0.56309 1.519945,-0.0604 1.915472,-0.1593 2.981234,-0.74565 z m -30.794849,-1.68094 c 0.586017,-0.23099 1.77235,-0.84785 2.636301,-1.37081 1.331938,-0.80623 2.344583,-1.45427 5.502148,-3.52106 1.562473,-1.02273 5.066693,-2.31645 6.274368,-2.31645 0.33732,0 0.422521,-0.0878 0.326987,-0.3367 -0.404715,-1.05466 -1.105145,-7.32421 -1.466932,-13.13039 -0.09031,-1.44944 -0.226871,-2.2645 -0.389878,-2.32706 -0.137986,-0.0529 -1.914566,0.0477 -3.947958,0.22368 -2.033383,0.17599 -6.062871,0.37787 -8.954408,0.44864 -5.205731,0.12742 -6.272982,0.0478 -8.762236,-0.65367 -0.361833,-0.10199 -0.470941,0.0805 -0.890726,1.48992 -0.620708,2.08394 -0.730338,2.7922 -0.566973,3.66301 0.148872,0.79353 1.026592,1.96341 1.473096,1.96341 0.158402,0 0.544461,-0.38917 0.857898,-0.86481 0.552011,-0.83769 0.571889,-0.84794 0.633471,-0.32649 0.03499,0.29608 -0.185152,1.33609 -0.489158,2.31112 -0.719679,2.30827 -0.64566,3.55504 0.291959,4.91782 0.562135,0.81703 0.837014,1.01528 1.793218,1.29324 0.940238,0.27334 1.375904,0.29005 2.602242,0.0998 2.362544,-0.36656 6.733404,-2.36666 8.710425,-3.98585 0.852972,-0.6986 0.774886,-1.75069 -0.292038,-3.93453 -0.887297,-1.81618 -0.93769,-2.08727 -0.60842,-3.2729 0.255672,-0.92063 0.440933,-0.96714 0.821648,-0.20616 0.904501,1.80789 1.685341,1.7426 4.349952,-0.36365 1.682638,-1.33006 2.599974,-1.01964 2.383685,0.80658 -0.06531,0.5514 -0.302255,1.40794 -0.526564,1.90341 -0.2243,0.49546 -0.621604,1.36472 -0.882893,1.9317 l -0.475072,1.03085 -0.06935,-0.99368 c -0.05065,-0.72594 0.04496,-1.18743 0.354836,-1.7127 0.522736,-0.88597 0.53183,-1.10777 0.04543,-1.10777 -0.208334,0 -0.780684,0.42878 -1.271885,0.95284 -0.4912,0.52408 -1.188553,1.07632 -1.549686,1.2272 -0.640477,0.26761 -0.659599,0.31383 -0.779055,1.88199 -0.207376,2.72233 -0.461279,3.1996 -2.684372,5.0459 -1.001929,0.83212 -1.409955,3.86607 -0.588237,4.37393 0.254535,0.1573 0.56324,-0.24565 0.733173,-0.95702 0.188737,-0.79005 0.539927,-0.70948 0.539927,0.12386 0,1.1166 -0.391586,1.97633 -0.96582,2.12044 -1.037204,0.26032 -1.619934,-1.23542 -1.265418,-3.24807 0.119511,-0.67844 0.169599,-1.28122 0.111321,-1.3395 -0.05828,-0.0582 -0.952136,0.32463 -1.986341,0.85093 -1.566027,0.79691 -1.957283,1.09697 -2.340414,1.79492 -1.847342,3.3653 -2.125815,4.43829 -1.392913,5.3671 0.547343,0.69365 1.22446,0.73044 2.704693,0.14699 z m -1.075046,-1.51079 c -0.259045,-0.56854 0.07005,-2.5122 0.532376,-3.14452 0.384378,-0.52566 0.583929,-0.2653 0.322896,0.42127 -0.461474,1.21376 -0.105277,2.45766 0.449419,1.56945 0.144382,-0.23118 0.332972,-0.42033 0.419084,-0.42033 0.289037,0 0.158682,0.71562 -0.253499,1.39165 -0.488605,0.80136 -1.150847,0.88356 -1.470276,0.18248 z m 11.415729,-6.32565 c -0.708706,-0.4538 -1.28856,-0.91373 -1.28856,-1.02208 0,-0.10835 0.156243,-0.58749 0.347199,-1.06474 0.222533,-0.55616 0.269589,-0.89363 0.131066,-0.93979 -0.118879,-0.0397 -0.65197,-0.34844 -1.18465,-0.68627 -1.065677,-0.67583 -1.090979,-0.87217 -0.284145,-2.20492 0.433796,-0.71654 0.799596,-0.83928 1.170266,-0.39264 0.126624,0.15258 0.601867,0.44499 1.056093,0.64982 0.917725,0.41383 0.961932,0.5523 0.516611,1.6181 -0.170089,0.40708 -0.309251,0.78607 -0.309251,0.84218 0,0.0561 0.552191,0.47701 1.227094,0.93533 l 1.227103,0.83331 -0.500225,1.07968 c -0.275129,0.59384 -0.572185,1.10162 -0.66013,1.12841 -0.08796,0.0268 -0.739758,-0.32259 -1.448471,-0.77639 z m -15.51431,-1.89904 c 0,-0.57862 0.127746,-0.83446 0.576074,-1.1537 0.714068,-0.50846 6.227546,-3.34156 6.227546,-3.20002 0,0.0567 0.440683,-0.12576 0.979307,-0.40533 1.374018,-0.71318 1.698487,-0.79447 1.827668,-0.45781 0.207064,0.5396 -0.300937,1.06609 -1.504615,1.55936 -1.907828,0.78184 -7.133069,3.49595 -7.642099,3.96947 l -0.463881,0.43152 z m -1.045986,-2.44921 c -0.307436,-0.57445 -0.135149,-1.56503 0.521745,-2.99987 0.669824,-1.4631 0.912413,-1.27459 0.426223,0.33119 -0.530272,1.75137 -0.117266,2.54626 0.648993,1.24909 0.314036,-0.53161 0.387556,-0.56947 0.500397,-0.2577 0.16158,0.4464 -0.495098,1.81238 -0.956369,1.9894 -0.587364,0.22539 -0.898946,0.14016 -1.140989,-0.31211 z m 4.556409,-2.70348 c -0.164908,-0.25514 -0.488747,-0.79337 -0.719647,-1.19607 -0.2309,-0.4027 -0.512599,-0.86852 -0.625992,-1.03519 -0.242572,-0.35652 -1.205805,-0.80976 -1.720913,-0.80976 -0.644131,0 -0.820579,-0.37557 -0.61276,-1.30434 0.105885,-0.47325 0.275222,-0.94382 0.376296,-1.04571 0.411182,-0.41459 1.997087,1.06835 2.843965,2.65931 0.537581,1.00992 0.549807,1.01829 0.601876,0.41233 0.157395,-1.83176 0.532304,-3.39414 0.892735,-3.72032 0.364686,-0.33004 0.427015,-0.33108 0.908967,-0.0153 0.550384,0.36063 0.808051,1.02413 0.695702,1.79143 -0.101096,0.69042 -0.433835,0.68409 -0.832183,-0.0158 -0.193162,-0.33941 -0.441105,-0.61711 -0.550975,-0.61711 -0.379523,0 -0.667813,1.42404 -0.576628,2.84826 0.09341,1.4589 -0.01056,2.51218 -0.248075,2.51218 -0.07286,0 -0.267461,-0.20875 -0.432368,-0.46389 z m 28.423821,12.53265 c 0.918883,-0.32419 1.810779,-1.07085 4.562379,-3.81941 2.682487,-2.67953 2.741775,-2.43106 -0.588108,-2.46462 l -2.868062,-0.0289 -0.232775,0.92444 c -0.282006,1.11995 -0.298571,1.91387 -0.04323,2.07168 0.24177,0.14943 0.841303,-0.44144 0.841303,-0.82913 0,-0.162 0.09277,-0.29453 0.20617,-0.29453 0.301054,0 0.251865,0.93472 -0.09256,1.75906 -0.315967,0.75622 -1.012141,0.971 -1.515565,0.46758 -0.338904,-0.33891 -0.310618,-1.74655 0.05961,-2.96702 0.168861,-0.55664 0.308027,-1.03526 0.309256,-1.06362 0.0013,-0.0284 -0.41338,-0.0515 -0.921348,-0.0515 -0.875098,0 -0.946424,0.0448 -1.358888,0.85329 -0.596793,1.16981 -0.987738,3.20268 -0.787482,4.09479 0.147522,0.6572 0.993387,1.64937 1.406161,1.64937 0.09282,0 0.553221,-0.13564 1.023129,-0.30145 z m 15.350808,-3.67965 c 0.977794,-0.81521 1.484321,-1.3015 2.686602,-2.57933 0.708226,-0.7527 0.584084,-0.95783 -1.014048,-1.67547 -1.780726,-0.79962 -3.751349,-0.47571 -5.576851,0.91667 -0.648481,0.49462 -0.654736,0.51567 -0.381198,1.28237 0.368224,1.03212 0.362761,2.78117 -0.01305,4.18133 -0.167398,0.62366 -0.305461,1.15467 -0.306807,1.17999 -0.0059,0.10959 3.696303,-2.54767 4.605357,-3.30556 z m -22.638195,-0.70928 c 0.07224,-0.42523 0.204601,-1.06204 0.294236,-1.41514 0.160575,-0.63264 0.14245,-0.65193 -1.242165,-1.32176 -0.772813,-0.37387 -1.666422,-0.90525 -1.985796,-1.18082 -0.539629,-0.46564 -0.584949,-0.47356 -0.641046,-0.11199 -0.03318,0.21399 0.152355,0.98285 0.412343,1.70857 0.389902,1.08838 0.663652,1.47496 1.562817,2.2069 0.599567,0.48806 1.175221,0.88739 1.279225,0.88739 0.104008,0 0.248183,-0.34793 0.320386,-0.77315 z m 17.967812,-4.79361 c 0.884871,-0.56706 2.194936,-1.22615 2.911259,-1.46462 1.012165,-0.33697 1.274539,-0.50622 1.177356,-0.75946 -0.161052,-0.4197 -1.142487,-4.99168 -1.76859,-8.23891 l -0.48696,-2.52559 h -1.781903 c -0.980048,0 -2.498366,0.0606 -3.374044,0.13459 l -1.592138,0.13459 1.354862,1.36532 c 1.418397,1.42934 1.563987,1.66423 1.031569,1.66423 -0.260326,0 -0.230206,0.12436 0.154628,0.63844 1.314998,1.75667 1.604084,2.35465 1.607965,3.32616 0.0081,2.02703 -1.004403,3.58908 -2.868975,4.42615 -2.358556,1.05886 -3.943001,0.79021 -5.742343,-0.97358 -0.459934,-0.45084 -0.949944,-0.81972 -1.088913,-0.81972 -0.407494,0 -2.703941,1.95272 -3.494233,2.97124 -0.299549,0.38605 -0.218578,0.39151 3.96217,0.26754 4.256182,-0.12621 6.003424,0.002 7.530362,0.55506 0.427931,0.15482 0.796287,0.29231 0.818565,0.30553 0.02228,0.0133 0.764492,-0.43991 1.649363,-1.00697 z m 0.699382,-4.56345 c -0.225561,-0.24212 -0.461973,-0.68281 -0.525358,-0.97931 -0.111263,-0.52047 0.592048,-5.33165 0.811471,-5.55107 0.337473,-0.33748 0.340061,0.40172 0.0077,2.2129 -0.31667,1.7259 -0.333764,2.14606 -0.109346,2.68786 0.285763,0.68988 0.680228,0.73649 0.796518,0.0941 0.131948,-0.72892 0.443862,-0.81367 0.443862,-0.12061 0,0.78152 -0.505603,2.09632 -0.80613,2.09632 -0.114764,0 -0.393209,-0.1981 -0.618769,-0.4402 z m -16.049765,3.47132 c 0.87835,-1.2212 1.591006,-2.0043 2.739911,-3.01072 l 0.800453,-0.70119 -0.990352,-0.89663 c -1.118212,-1.01238 -1.821659,-1.14064 -2.656081,-0.48427 -0.726332,0.57132 -0.764718,0.53272 -0.461372,-0.4639 0.486604,-1.59872 0.762731,-1.992 1.734815,-2.471 0.837311,-0.41258 1.259549,-0.46692 3.627816,-0.46692 2.325912,0 2.865373,0.0668 4.080913,0.50519 0.770386,0.27787 1.497239,0.62155 1.615232,0.76372 0.151432,0.18246 0.103294,0.6029 -0.163676,1.4294 -0.358697,1.1105 -0.431399,1.19097 -1.409063,1.5596 -0.566968,0.21379 -1.245751,0.48055 -1.508404,0.59279 l -0.477552,0.20409 0.672901,0.56516 c 0.590059,0.49558 0.840086,0.56336 2.03086,0.55051 1.090239,-0.0118 1.579731,-0.13369 2.482877,-0.61851 0.618707,-0.33213 1.150658,-0.74302 1.182112,-0.91313 0.03146,-0.17009 -0.367265,-0.81951 -0.886046,-1.44319 -0.518782,-0.62366 -1.26499,-1.67637 -1.658238,-2.33935 -0.393248,-0.66297 -0.857152,-1.34757 -1.030897,-1.52131 -0.173747,-0.17375 -0.263977,-0.45122 -0.200515,-0.61661 0.06346,-0.16538 0.175398,-0.67597 0.248745,-1.13465 l 0.133358,-0.83397 -1.319282,0.13057 c -2.060028,0.20388 -12.494815,0.94836 -14.101838,1.00612 -0.816286,0.0293 -1.429965,0.14143 -1.412745,0.25803 0.01675,0.1134 0.09195,1.27311 0.167114,2.57713 0.144125,2.5004 0.721765,5.25247 1.319853,6.28819 0.576424,0.99821 3.247479,2.52658 4.461523,2.55288 0.113393,0.002 0.553304,-0.47816 0.977578,-1.06803 z M -53.20609,111.457 c -0.343451,-0.3901 -0.3221,-1.4204 0.05556,-2.68107 0.473403,-1.58031 0.502756,-1.6374 0.726628,-1.41352 0.131494,0.13149 0.0575,0.62074 -0.21248,1.40553 -0.331693,0.96408 -0.364295,1.26954 -0.163715,1.53368 0.137759,0.18141 0.277678,0.36945 0.310935,0.41787 0.03328,0.0484 0.204999,-0.0908 0.381642,-0.30925 0.304287,-0.37643 0.314144,-0.36485 0.187465,0.22006 -0.234172,1.08123 -0.762777,1.42103 -1.286035,0.8267 z m -3.556435,-3.98676 c 0,-0.11873 0.515069,-0.56934 1.144605,-1.00136 0.629537,-0.43202 1.441328,-1.00489 1.803987,-1.27301 l 0.659381,-0.4875 -1.90707,0.13412 c -1.048893,0.0738 -1.907079,0.0844 -1.907079,0.0237 0,-0.0607 0.255135,-0.57524 0.566974,-1.14343 l 0.566965,-1.03306 2.245886,0.0536 c 2.864061,0.0684 3.015721,0.22514 1.825765,1.88689 -1.049617,1.46578 -1.474039,1.78754 -3.143881,2.38347 -0.737063,0.26303 -1.456078,0.52193 -1.59782,0.57531 -0.141749,0.0534 -0.257713,-5e-5 -0.257713,-0.11878 z m 31.356496,4.34669 c 0.194287,-0.79246 0.285944,-2.31325 0.276476,-4.58727 -0.01328,-3.18941 -0.055,-3.54205 -0.668309,-5.64769 -0.923649,-3.171167 -3.72296,-9.371487 -5.540837,-12.272639 -0.396478,-0.632739 -1.072819,-1.736249 -1.502979,-2.452233 l -0.782111,-1.301798 0.09694,0.992539 c 0.05331,0.545902 0.221157,1.641977 0.372981,2.435737 0.151825,0.793759 0.38503,2.185402 0.518235,3.092554 0.133206,0.907152 0.372133,2.35444 0.530953,3.216209 0.158817,0.86177 0.28876,1.766342 0.28876,2.010163 0,0.389971 0.115158,0.443309 0.957138,0.443309 h 0.957134 l -0.132073,-1.263609 c -0.137764,-1.318061 -0.566157,-2.214085 -1.460077,-3.053881 -0.525786,-0.493952 -0.70421,-1.322223 -0.334103,-1.550957 0.299869,-0.18533 1.320257,0.92382 1.842645,2.002924 0.389128,0.803835 0.458363,1.238065 0.402097,2.521841 l -0.06797,1.550816 0.733732,-4.13e-4 c 0.403553,-2.1e-4 0.896602,0.118615 1.095665,0.264166 0.34033,0.248861 0.328941,0.328241 -0.190845,1.330107 l -0.552776,1.065455 -1.316026,-0.1229 c -1.19728,-0.11181 -1.316086,-0.0876 -1.316669,0.26772 -0.0022,1.37036 1.744994,9.65867 2.142997,10.16562 0.290141,0.36957 2.833989,2.04627 3.133601,2.06542 0.12363,0.007 0.355572,-0.51911 0.515425,-1.17113 z m -3.310086,-4.36757 c -0.278912,-0.52113 -0.271537,-1.48962 0.01689,-2.21645 0.126668,-0.31923 0.289027,-1.08317 0.3608,-1.69767 0.157294,-1.34675 0.645921,-1.70043 0.645921,-0.46755 0,0.67514 0.124302,0.92965 0.701551,1.43649 1.27642,1.12071 1.478784,2.00706 0.647926,2.83792 -0.653882,0.65389 -2.046838,0.71684 -2.373076,0.10726 z m 1.726671,-1.01443 c 0.157616,-0.25502 -0.837259,-1.12964 -1.100151,-0.96716 -0.245304,0.1516 -0.298703,0.7912 -0.08398,1.00591 0.197583,0.19759 1.055424,0.16951 1.184136,-0.0387 z m -17.139451,0.45586 0.655279,-0.33886 -0.503518,-0.18627 c -0.276937,-0.10241 -0.876742,-0.1587 -1.332904,-0.12502 l -0.829389,0.0612 0.500093,0.46388 c 0.597564,0.5543 0.668901,0.5602 1.510439,0.12503 z m -24.54535,-8.093117 c 0.01418,-0.06826 -0.09954,-0.382468 -0.252727,-0.698256 -0.244762,-0.504581 -0.220623,-0.779453 0.199171,-2.267876 0.489712,-1.736312 1.038248,-2.725999 1.038248,-1.873253 0,0.233339 -0.185558,0.963568 -0.412342,1.622739 -0.482926,1.403667 -0.483619,1.408499 -0.174313,1.217331 0.147475,-0.09115 0.182057,-0.05657 0.09091,0.09091 -0.08091,0.13091 -0.08025,0.34621 0.0016,0.478437 0.09943,0.160903 0.307709,0.04154 0.629655,-0.360797 l 0.481062,-0.601213 7.8e-4,0.577205 c 0.0016,0.856424 -0.526508,1.728292 -1.114816,1.840758 -0.282236,0.05392 -0.501549,0.04224 -0.487359,-0.02602 z m 25.222084,-1.005322 c -0.06351,-0.06351 -0.115469,-0.322575 -0.115469,-0.575716 0,-0.563566 0.582126,-0.883455 4.643274,-2.55156 1.637314,-0.672519 3.027983,-1.140163 3.090374,-1.039215 0.285181,0.461434 -0.158457,1.169307 -0.891636,1.422695 -0.417993,0.14447 -1.131095,0.43096 -1.584669,0.636659 -0.453575,0.205693 -1.520507,0.66991 -2.370959,1.031587 -0.850452,0.361687 -1.79584,0.777621 -2.100862,0.92431 -0.305023,0.14669 -0.606548,0.214747 -0.670053,0.15124 z m -2.86115,-1.984291 c -0.65967,-0.378432 -1.283074,-0.771714 -1.385336,-0.873981 -0.229977,-0.22998 0.715418,-2.342728 1.048301,-2.342728 0.12924,0 0.736555,0.300003 1.349593,0.666676 1.268929,0.758981 1.371033,1.115002 0.698082,2.434092 -0.229092,0.449061 -0.437839,0.81366 -0.463883,0.810224 -0.02606,-0.0031 -0.587085,-0.31586 -1.246757,-0.694283 z m 4.085788,-1.950941 c -1.864707,-1.151822 -2.269488,-2.854999 -2.579261,-10.85269 -0.226995,-5.860576 -0.877599,-13.331074 -1.263949,-14.513182 -0.173138,-0.529758 -0.163786,-0.970403 0.03849,-1.813595 0.456602,-1.90333 0.83828,-1.743207 1.322305,0.554754 0.415299,1.971668 0.867035,7.070224 1.150812,12.988728 0.253655,5.290261 0.510902,8.225146 0.815199,9.300463 0.291997,1.031844 1.296486,2.0389 2.033702,2.0389 0.785143,0 1.8788,-0.395582 1.908247,-0.690222 0.06004,-0.60073 -0.106818,-1.147708 -0.680045,-2.229281 -0.599951,-1.132005 -0.610785,-1.201684 -0.360647,-2.319422 0.141836,-0.633791 0.364365,-1.152351 0.494504,-1.152351 0.130139,0 0.556064,0.661602 0.946501,1.470236 0.635097,1.315349 0.709179,1.648532 0.703191,3.162607 -0.0055,1.390795 -0.09873,1.872754 -0.523193,2.70471 -0.823316,1.613707 -2.606417,2.214772 -4.005861,1.350345 z m -34.948696,-2.767153 c -0.735223,-0.591673 -0.995688,-1.312644 -0.960201,-2.657838 0.02938,-1.113975 0.179019,-1.626448 0.897294,-3.073098 0.474112,-0.954903 1.246957,-2.330681 1.717437,-3.057286 0.470475,-0.726605 1.273661,-2.094646 1.784858,-3.040097 0.511195,-0.94545 1.020202,-1.775093 1.131116,-1.843642 0.846108,-0.522923 0.02564,1.477702 -1.864976,4.547448 -2.081556,3.379794 -2.290356,3.848606 -2.290356,5.142387 0,0.924412 0.08112,1.187268 0.445031,1.442169 0.403546,0.282656 0.497092,0.27463 1.00362,-0.08605 0.307226,-0.218759 0.676329,-0.681986 0.820222,-1.029381 0.320051,-0.772665 0.743989,-0.690682 0.657402,0.127131 -0.148202,1.399724 -1.782589,3.797622 -2.580487,3.785964 -0.246881,-0.0039 -0.589312,-0.119572 -0.76096,-0.257706 z m 13.281225,-0.169419 c -0.471642,-0.520796 -0.520251,-2.283794 -0.115933,-4.205149 0.143176,-0.680358 0.361912,-1.775334 0.48609,-2.433274 0.310218,-1.643661 0.654433,-1.209445 0.391654,0.494061 -0.400093,2.593717 -0.500192,4.702342 -0.238209,5.018014 0.351805,0.423907 0.788452,0.184591 0.942443,-0.516526 0.240671,-1.095763 0.578715,-0.956469 0.468276,0.192944 -0.161768,1.683519 -1.091579,2.38049 -1.934321,1.44993 z m 11.698408,-1.311024 c -0.607057,-0.386816 -1.151245,-0.750808 -1.209313,-0.808877 -0.137517,-0.137517 0.275573,-1.315668 0.675106,-1.925428 l 0.312587,-0.477073 1.227204,0.674054 c 0.927575,0.509481 1.227799,0.786294 1.229646,1.133765 0.0035,0.656063 -0.616964,2.118397 -0.896161,2.11214 -0.129429,-0.0031 -0.732013,-0.321766 -1.339069,-0.708581 z M -74.69934,85.913529 c 0,-0.535718 0.718533,-1.142985 2.221832,-1.877772 1.720477,-0.840941 7.509076,-3.196237 7.855365,-3.196237 0.259326,0 0.305884,0.600502 0.07356,0.948357 -0.158074,0.236643 -1.621227,0.900981 -4.059474,1.843197 -0.788677,0.30477 -2.383193,1.007445 -3.543359,1.561499 -2.268484,1.083343 -2.547899,1.162411 -2.547899,0.720956 z m 20.617026,-0.846724 c 0,-0.432852 0.253225,-0.638941 1.644783,-1.338601 0.904635,-0.454842 1.693236,-0.826984 1.752449,-0.826984 0.05922,0 0.107665,0.211263 0.107665,0.469476 0,0.383543 -0.320807,0.628587 -1.752448,1.338609 l -1.752449,0.869125 z m 0.906645,-2.684309 c -0.282633,-0.431348 -0.302136,-0.665748 -0.115785,-1.391652 0.123243,-0.480104 0.281426,-1.174448 0.351501,-1.542976 0.07005,-0.368527 0.212831,-0.670057 0.317215,-0.670057 0.249938,0 0.239418,0.301934 -0.0434,1.245967 -0.128268,0.428115 -0.17083,1.02692 -0.09459,1.330685 0.114383,0.455731 0.191199,0.508656 0.439375,0.302683 0.165422,-0.137284 0.300765,-0.382889 0.300765,-0.545786 0,-0.162898 0.08593,-0.243064 0.190981,-0.178147 0.373312,0.230721 -0.359371,1.968007 -0.829985,1.968007 -0.09689,0 -0.329122,-0.233426 -0.51605,-0.518724 z m 11.875912,0.134191 c 0,-0.211498 0.181133,-0.61481 0.402518,-0.896259 l 0.40252,-0.511717 -0.608689,-0.450027 c -0.886598,-0.655492 -0.850544,-1.680245 0.0923,-2.623086 1.086397,-1.086389 2.413857,-0.814587 2.101416,0.430281 -0.133663,0.532562 -0.505571,0.670758 -0.857641,0.318688 -0.229878,-0.229879 -1.120072,-0.04986 -1.120072,0.226497 0,0.101832 0.301524,0.37378 0.670053,0.604322 0.654591,0.40949 1.384265,0.434847 2.284305,0.07938 0.320022,-0.12639 0.366922,-0.05922 0.309256,0.443045 -0.0569,0.495533 -0.302738,0.720129 -1.508293,1.377975 -0.792176,0.432276 -1.515804,0.920835 -1.608065,1.085696 -0.236081,0.42185 -0.559597,0.372836 -0.559597,-0.08478 z M -70.16369,80.323975 c -0.521076,-0.627853 -0.489175,-2.072056 0.08754,-3.96274 0.765191,-2.508586 0.726916,-2.4185 0.936941,-2.205186 0.111071,0.112816 -0.01738,0.979223 -0.318392,2.14772 -0.374831,1.455016 -0.452082,2.077891 -0.300446,2.422503 0.276898,0.629288 0.525947,0.582972 0.831474,-0.154629 0.380152,-0.917773 0.678807,-0.767951 0.513736,0.257714 -0.253155,1.572947 -1.091735,2.288805 -1.750852,1.494618 z m 27.109325,-4.229873 c -0.319869,-0.517555 0.213601,-1.192895 1.667324,-2.110722 0.847816,-0.535281 1.778258,-1.032669 2.067649,-1.105301 0.481014,-0.120726 0.520351,-0.08186 0.45838,0.452848 -0.05766,0.497535 -0.36747,0.761342 -2.073801,1.765897 -1.103307,0.649548 -2.057105,1.09832 -2.119552,0.997278 z m -22.779656,-6.607504 c 0,-0.590638 0.574595,-1.110218 1.922897,-1.738805 2.233247,-1.041148 5.729082,-2.416092 5.845912,-2.299262 0.05682,0.05681 0.042,0.296471 -0.03297,0.532562 -0.134986,0.425325 -0.606877,0.685921 -3.200134,1.767284 -0.737055,0.307343 -2.014768,0.873615 -2.839361,1.258381 -1.673629,0.780925 -1.696383,0.787362 -1.696383,0.47984 z m 4.955343,-4.302466 c -0.366292,-0.684427 -0.235349,-1.997532 0.32895,-3.298692 0.298304,-0.687838 0.623022,-1.250612 0.721595,-1.250612 0.262723,0 0.219499,0.354923 -0.124139,1.019447 -0.424117,0.820151 -0.620311,2.193763 -0.338239,2.368092 0.129546,0.08007 0.330906,-0.08633 0.467645,-0.386442 0.581475,-1.276193 0.754836,-0.06265 0.197152,1.380025 -0.258906,0.669785 -0.935882,0.760658 -1.252964,0.168182 z m 7.531627,-1.097698 c -0.324696,-0.495548 -0.518895,-3.11819 -0.250747,-3.386338 0.285492,-0.285492 0.53998,0.435565 0.543182,1.539027 0.0023,0.806164 0.08885,1.121744 0.333214,1.215516 0.495812,0.190263 0.694134,-0.30711 0.697633,-1.749582 0.0039,-1.498935 0.265715,-1.523153 0.617427,-0.05705 0.22748,0.948233 0.891716,1.879135 1.153824,1.617035 0.0639,-0.0639 -0.0804,-0.501581 -0.320691,-0.972591 -0.399618,-0.783318 -0.417142,-1.657617 -0.03319,-1.657617 0.183454,0 1.26603,2.323107 1.26603,2.716771 0,0.15622 -0.147052,0.493984 -0.326783,0.750583 -0.378492,0.54037 -1.001803,0.459455 -1.57646,-0.204656 -0.354275,-0.409421 -0.358801,-0.408502 -0.600065,0.121005 -0.308114,0.676228 -1.081854,0.711177 -1.503346,0.06787 z"
       id="path3354"
       sodipodi:nodetypes="ssssscsscscsssssssssssccscsssscsscccssssccsscssscssssssssccsssssscsscsscsscccsssssscsssssssssscsccsssssssssscsscssccssssscsssccsssssssssssssssssssssscssssssssssssssssssssssscssssssssssssssssscssssssccssssssscsssssssssssssssssscsssccsssssscsssscsssssssssccsssccsssssssscsscsccssssssscssssssssssscssccssssssssssssscsssssssssccsscsssssssssscssssssssssssscssscscscssscsccccsscssssssssscsssssssssssccsssssssssccssssscsssscssscscsscsssssssssssscscssssssssssssscsssssssscsssssscsscsssssssssscsscscsscsssssscsssssssssccsssscssssssscsssscscssssscsssssssssssssssssssscscssssssssssssssccscsssssssscssssssscsssssssssscssssssssssssscssscssssssscsscssssssssssssccsssssscssccsssssscsssscsccsssssssssccscsscssssccsscsssssssssscssssssssscscssscsssscscssscssccssccssscccsssscsssssscssssscccscssscccsssscssscssccccsscssccsssssscccccccsssssssssssssscsssssssssssssscssssssssssssssscsssssssssssscsccscsscssccssssscscscsssssssccsscssssssssssssssssssssssssscsscssccsssssssscssscsssssssscc" />
  </g>
</svg>
